<svg width="16" height="16" viewBox="0 0 16 16" fill="none" xmlns="http://www.w3.org/2000/svg">
<path d="M11.044 14.6659H11.0627C11.4147 14.6659 11.7473 14.5273 11.9993 14.2753L13.8073 12.4673C13.8693 12.4054 13.9185 12.3319 13.952 12.251C13.9855 12.1702 14.0028 12.0835 14.0028 11.9959C14.0028 11.9084 13.9855 11.8217 13.952 11.7408C13.9185 11.6599 13.8693 11.5864 13.8073 11.5246L11.1407 8.85792C11.0788 8.79595 11.0053 8.7468 10.9245 8.71326C10.8436 8.67972 10.7569 8.66245 10.6693 8.66245C10.5818 8.66245 10.4951 8.67972 10.4142 8.71326C10.3333 8.7468 10.2599 8.79595 10.198 8.85792L9.13534 9.92059C8.64267 9.77392 7.72334 9.44059 7.14067 8.85792C6.558 8.27525 6.22467 7.35592 6.078 6.86325L7.14067 5.80059C7.20263 5.73873 7.25179 5.66526 7.28533 5.58438C7.31887 5.5035 7.33614 5.41681 7.33614 5.32925C7.33614 5.2417 7.31887 5.155 7.28533 5.07412C7.25179 4.99325 7.20263 4.91978 7.14067 4.85792L4.474 2.19125C4.34655 2.07095 4.17793 2.00394 4.00267 2.00394C3.82741 2.00394 3.65879 2.07095 3.53134 2.19125L1.724 3.99925C1.47067 4.25259 1.328 4.60059 1.33334 4.95592C1.34867 5.90525 1.6 9.20259 4.19867 11.8013C6.79734 14.3999 10.0947 14.6506 11.044 14.6659V14.6659ZM4.00334 3.60525L5.72734 5.32925L4.86534 6.19125C4.78689 6.26948 4.72927 6.36609 4.69771 6.47229C4.66616 6.57848 4.66167 6.69088 4.68467 6.79925C4.70067 6.87592 5.092 8.69392 6.19867 9.80059C7.30534 10.9073 9.12334 11.2986 9.2 11.3146C9.30837 11.3377 9.42081 11.3333 9.52702 11.3017C9.63324 11.2702 9.72984 11.2125 9.808 11.1339L10.67 10.2719L12.394 11.9959L11.0567 13.3326C10.2247 13.3186 7.378 13.0953 5.14134 10.8579C2.89734 8.61392 2.68 5.75725 2.66667 4.94192L4.00334 3.60525ZM13.3327 7.33259H14.666C14.666 3.91259 12.084 1.33325 8.65934 1.33325V2.66659C11.3673 2.66659 13.3327 4.62858 13.3327 7.33259V7.33259Z" fill="white"/>
<path d="M8.66599 5.33333C10.068 5.33333 10.666 5.93133 10.666 7.33333H11.9993C11.9993 5.18333 10.816 4 8.66599 4V5.33333Z" fill="white"/>
</svg>
