<svg width="19" height="19" viewBox="0 0 19 19" fill="none" xmlns="http://www.w3.org/2000/svg">
<path d="M1.97916 3.3645C1.97916 3.20703 2.04171 3.05601 2.15306 2.94466C2.26441 2.83331 2.41543 2.77075 2.57291 2.77075H3.01466C3.76674 2.77075 4.21799 3.27663 4.47528 3.74688C4.64707 4.06038 4.77136 4.42375 4.86874 4.75309C4.89508 4.75101 4.92149 4.74995 4.94791 4.74992H14.8422C15.4992 4.74992 15.9742 5.3785 15.7937 6.01104L14.3466 11.0848C14.2168 11.5399 13.9423 11.9404 13.5646 12.2255C13.1869 12.5106 12.7266 12.6649 12.2534 12.665H7.54457C7.06759 12.665 6.6038 12.5084 6.22449 12.2192C5.84518 11.93 5.57134 11.5242 5.44507 11.0643L4.84341 8.86975L3.84591 5.50675L3.84511 5.50042C3.72161 5.05154 3.60603 4.63117 3.43345 4.31767C3.26799 4.01288 3.13499 3.95825 3.01545 3.95825H2.57291C2.41543 3.95825 2.26441 3.8957 2.15306 3.78435C2.04171 3.673 1.97916 3.52197 1.97916 3.3645ZM5.99528 8.58159L6.58982 10.75C6.70857 11.179 7.09886 11.4775 7.54457 11.4775H12.2534C12.4685 11.4775 12.6777 11.4074 12.8495 11.2778C13.0212 11.1483 13.146 10.9663 13.205 10.7595L14.5801 5.93742H5.21311L5.9842 8.53963L5.99528 8.58159Z" fill="#2F1AC4"/>
<path d="M8.70832 15.0416C8.70832 15.4615 8.54151 15.8642 8.24458 16.1612C7.94764 16.4581 7.54492 16.6249 7.12499 16.6249C6.70506 16.6249 6.30234 16.4581 6.0054 16.1612C5.70847 15.8642 5.54166 15.4615 5.54166 15.0416C5.54166 14.6217 5.70847 14.2189 6.0054 13.922C6.30234 13.6251 6.70506 13.4583 7.12499 13.4583C7.54492 13.4583 7.94764 13.6251 8.24458 13.922C8.54151 14.2189 8.70832 14.6217 8.70832 15.0416ZM7.52082 15.0416C7.52082 14.9366 7.47912 14.8359 7.40489 14.7617C7.33065 14.6875 7.22997 14.6458 7.12499 14.6458C7.02001 14.6458 6.91933 14.6875 6.84509 14.7617C6.77086 14.8359 6.72916 14.9366 6.72916 15.0416C6.72916 15.1466 6.77086 15.2472 6.84509 15.3215C6.91933 15.3957 7.02001 15.4374 7.12499 15.4374C7.22997 15.4374 7.33065 15.3957 7.40489 15.3215C7.47912 15.2472 7.52082 15.1466 7.52082 15.0416Z" fill="#2F1AC4"/>
<path d="M14.25 15.0416C14.25 15.4615 14.0832 15.8642 13.7862 16.1612C13.4893 16.4581 13.0866 16.6249 12.6666 16.6249C12.2467 16.6249 11.844 16.4581 11.5471 16.1612C11.2501 15.8642 11.0833 15.4615 11.0833 15.0416C11.0833 14.6217 11.2501 14.2189 11.5471 13.922C11.844 13.6251 12.2467 13.4583 12.6666 13.4583C13.0866 13.4583 13.4893 13.6251 13.7862 13.922C14.0832 14.2189 14.25 14.6217 14.25 15.0416ZM13.0625 15.0416C13.0625 14.9366 13.0208 14.8359 12.9465 14.7617C12.8723 14.6875 12.7716 14.6458 12.6666 14.6458C12.5617 14.6458 12.461 14.6875 12.3867 14.7617C12.3125 14.8359 12.2708 14.9366 12.2708 15.0416C12.2708 15.1466 12.3125 15.2472 12.3867 15.3215C12.461 15.3957 12.5617 15.4374 12.6666 15.4374C12.7716 15.4374 12.8723 15.3957 12.9465 15.3215C13.0208 15.2472 13.0625 15.1466 13.0625 15.0416Z" fill="#2F1AC4"/>
</svg>
