<svg width="16" height="16" viewBox="0 0 16 16" fill="none" xmlns="http://www.w3.org/2000/svg">
<path d="M13.44 3.07329C12.7322 2.3653 11.7938 1.93484 10.7955 1.86021C9.79713 1.78558 8.80517 2.07173 7.99998 2.66662C7.15175 2.03572 6.09597 1.74963 5.04526 1.86598C3.99455 1.98233 3.02694 2.49248 2.3373 3.29368C1.64765 4.09489 1.2872 5.12764 1.32851 6.18397C1.36983 7.2403 1.80986 8.24174 2.55998 8.98662L7.52665 13.9533C7.58862 14.0158 7.66236 14.0654 7.7436 14.0992C7.82484 14.1331 7.91197 14.1505 7.99998 14.1505C8.08799 14.1505 8.17513 14.1331 8.25636 14.0992C8.3376 14.0654 8.41134 14.0158 8.47331 13.9533L13.44 8.98662C13.8284 8.59844 14.1366 8.13752 14.3468 7.6302C14.557 7.12288 14.6652 6.57911 14.6652 6.02996C14.6652 5.4808 14.557 4.93703 14.3468 4.42971C14.1366 3.9224 13.8284 3.46148 13.44 3.07329ZM12.5 8.04662L7.99998 12.54L3.49998 8.04662C3.10343 7.64842 2.8333 7.14199 2.72347 6.59085C2.61364 6.03971 2.669 5.46841 2.88261 4.94862C3.09623 4.42883 3.45858 3.98369 3.92421 3.66904C4.38984 3.35439 4.93802 3.18425 5.49998 3.17996C6.25072 3.1818 6.97005 3.48151 7.49998 4.01329C7.56196 4.07578 7.63569 4.12537 7.71693 4.15922C7.79817 4.19306 7.88531 4.21049 7.97331 4.21049C8.06132 4.21049 8.14846 4.19306 8.2297 4.15922C8.31094 4.12537 8.38467 4.07578 8.44665 4.01329C8.9922 3.54055 9.69698 3.29272 10.4183 3.31997C11.1397 3.34723 11.8238 3.64752 12.3321 4.16008C12.8404 4.67264 13.135 5.35918 13.1563 6.08075C13.1776 6.80232 12.9239 7.50502 12.4466 8.04662H12.5Z" fill="white"/>
</svg>
