<svg width="16" height="16" viewBox="0 0 16 16" fill="none" xmlns="http://www.w3.org/2000/svg">
<path d="M12.6666 2.66675H3.33331C2.80288 2.66675 2.29417 2.87746 1.9191 3.25253C1.54403 3.62761 1.33331 4.13631 1.33331 4.66675V11.3334C1.33331 11.8638 1.54403 12.3726 1.9191 12.7476C2.29417 13.1227 2.80288 13.3334 3.33331 13.3334H12.6666C13.1971 13.3334 13.7058 13.1227 14.0809 12.7476C14.4559 12.3726 14.6666 11.8638 14.6666 11.3334V4.66675C14.6666 4.13631 14.4559 3.62761 14.0809 3.25253C13.7058 2.87746 13.1971 2.66675 12.6666 2.66675V2.66675ZM3.33331 4.00008H12.6666C12.8435 4.00008 13.013 4.07032 13.1381 4.19534C13.2631 4.32037 13.3333 4.48994 13.3333 4.66675L7.99998 7.92008L2.66665 4.66675C2.66665 4.48994 2.73688 4.32037 2.86191 4.19534C2.98693 4.07032 3.1565 4.00008 3.33331 4.00008V4.00008ZM13.3333 11.3334C13.3333 11.5102 13.2631 11.6798 13.1381 11.8048C13.013 11.9298 12.8435 12.0001 12.6666 12.0001H3.33331C3.1565 12.0001 2.98693 11.9298 2.86191 11.8048C2.73688 11.6798 2.66665 11.5102 2.66665 11.3334V6.18675L7.65331 9.23341C7.75466 9.29193 7.86962 9.32273 7.98665 9.32273C8.10367 9.32273 8.21863 9.29193 8.31998 9.23341L13.3333 6.18675V11.3334Z" fill="white"/>
</svg>
