<svg width="65" height="65" viewBox="0 0 65 65" fill="none" xmlns="http://www.w3.org/2000/svg">
<g clip-path="url(#clip0_1_461)">
<path d="M15.9171 36.5373V47.1666H53.275C54.3424 47.1666 55.2076 46.3013 55.2076 45.234C55.2076 44.2956 55.2076 37.4738 55.2076 36.5373L35.5623 33.9603L15.9171 36.5373Z" fill="#8B9BA9"/>
<path d="M51.3423 36.022V43.3015H15.9171V47.1667H53.275C54.3424 47.1667 55.2076 46.3014 55.2076 45.2341C55.2076 44.3448 55.2076 37.4096 55.2076 36.5373L51.3423 36.022Z" fill="#6C7A88"/>
<path d="M56.9474 11.0692H21.7158C20.6484 11.0692 19.7832 11.9345 19.7832 13.0018V19.0245H6.8946C5.08671 19.0245 3.52027 20.2778 3.12357 22.0417L1.66084 28.5463C1.28514 30.2171 1.09549 31.9245 1.09549 33.637V47.1664H19.7832C19.7832 46.8519 19.7832 42.072 19.7832 36.5371H56.9476C58.0149 36.5371 58.8802 35.6718 58.8802 34.6045V13.0018C58.88 11.9344 58.0149 11.0692 56.9474 11.0692Z" fill="#FF7E40"/>
<path d="M64.034 28.2375H58.8802V24.7695H61.4571C61.9909 24.7695 62.4234 24.3368 62.4234 23.8032C62.4234 23.2695 61.9909 22.8369 61.4571 22.8369H58.8802V19.3689H62.7455C63.2793 19.3689 63.7118 18.9362 63.7118 18.4026C63.7118 17.8689 63.2793 17.4363 62.7455 17.4363H58.8802V13.9681H64.034C64.5678 13.9681 65.0004 13.5355 65.0004 13.0018C65.0004 12.4682 64.5678 12.0355 64.034 12.0355H58.6195C58.2852 11.4584 57.6625 11.0692 56.9476 11.0692H55.015V32.672H19.7832C19.7832 25.8735 19.7832 19.2079 19.7832 19.0243H15.9179V36.5372H13.019C10.2018 36.5372 7.63904 37.641 5.73503 39.4361H1.09549V47.1666H19.7832C19.7832 46.9044 19.7832 42.1025 19.7832 36.5372H31.695H56.9476C57.6625 36.5372 58.2852 36.148 58.6195 35.5709H62.7455C63.2793 35.5709 63.7118 35.1383 63.7118 34.6046C63.7118 34.071 63.2793 33.6383 62.7455 33.6383H58.8802V30.1702H64.034C64.5678 30.1702 65.0004 29.7376 65.0004 29.2039C65.0004 28.6702 64.5678 28.2375 64.034 28.2375Z" fill="#FF6344"/>
<path d="M0.966303 47.1664H8.03913V43.3011H0.966303C0.432646 43.3011 0 43.7338 0 44.2675V46.2001C0 46.7338 0.432646 47.1664 0.966303 47.1664Z" fill="#8B9BA9"/>
<path d="M15.9178 22.8895H6.66399L4.8266 31.0602H15.9178V22.8895Z" fill="#9DC6FB"/>
<path d="M12.2831 27.195H5.69576L4.8266 31.0602H15.9178V22.8895H12.2831V27.195Z" fill="#80B4FB"/>
<path d="M45.8667 53.9305C49.6024 53.9305 52.6309 50.9021 52.6309 47.1663C52.6309 43.4306 49.6024 40.4022 45.8667 40.4022C42.131 40.4022 39.1026 43.4306 39.1026 47.1663C39.1026 50.9021 42.131 53.9305 45.8667 53.9305Z" fill="#4D5967"/>
<path d="M47.2501 40.5449C46.4572 42.0097 46.679 43.8784 47.9171 45.1164L43.8174 49.2162C42.5794 47.978 40.7107 47.7561 39.2458 48.5491C39.8858 51.6177 42.6113 53.9304 45.8673 53.9304C49.5971 53.9304 52.6314 50.8961 52.6314 47.1663C52.6312 43.9104 50.3187 41.185 47.2501 40.5449Z" fill="#35404A"/>
<path d="M45.8664 50.0654C47.4675 50.0654 48.7654 48.7675 48.7654 47.1665C48.7654 45.5655 47.4675 44.2676 45.8664 44.2676C44.2654 44.2676 42.9675 45.5655 42.9675 47.1665C42.9675 48.7675 44.2654 50.0654 45.8664 50.0654Z" fill="#FFF9EB"/>
<path d="M13.0188 53.9305C16.7545 53.9305 19.7829 50.9021 19.7829 47.1663C19.7829 43.4306 16.7545 40.4022 13.0188 40.4022C9.28304 40.4022 6.25464 43.4306 6.25464 47.1663C6.25464 50.9021 9.28304 53.9305 13.0188 53.9305Z" fill="#4D5967"/>
<path d="M14.402 40.5449C13.6091 42.0097 13.8308 43.8784 15.069 45.1164L10.9693 49.2162C9.73123 47.978 7.86253 47.7561 6.39761 48.5491C7.03769 51.6177 9.76318 53.9304 13.0191 53.9304C16.7489 53.9304 19.7832 50.8961 19.7832 47.1663C19.7832 43.9104 17.4707 41.185 14.402 40.5449Z" fill="#35404A"/>
<path d="M13.0185 50.0654C14.6195 50.0654 15.9174 48.7675 15.9174 47.1665C15.9174 45.5655 14.6195 44.2676 13.0185 44.2676C11.4175 44.2676 10.1196 45.5655 10.1196 47.1665C10.1196 48.7675 11.4175 50.0654 13.0185 50.0654Z" fill="#FFF9EB"/>
<path d="M29.5608 21.8712V22.8375H30.7846C31.3183 22.8375 31.7507 23.2699 31.7507 23.8037C31.7507 24.3374 31.3183 24.77 30.7846 24.77H29.5608V26.7023C29.5608 27.2361 29.1281 27.6686 28.5946 27.6686C28.0611 27.6686 27.6285 27.2362 27.6285 26.7023V20.9051C27.6285 20.3715 28.0611 19.9391 28.5946 19.9391H31.5575C32.0912 19.9391 32.5236 20.3715 32.5236 20.9051C32.5236 21.4389 32.0912 21.8714 31.5575 21.8714H29.5608V21.8712Z" fill="#FFF9EB"/>
<path d="M38.7696 26.0216C39.145 26.4003 39.1426 27.0122 38.7638 27.3879C38.5751 27.5746 38.3293 27.668 38.0834 27.668C37.8347 27.668 37.5862 27.5727 37.3973 27.3821L35.7646 25.7357H35.2493V26.7017C35.2493 27.2355 34.8166 27.668 34.2831 27.668C33.7496 27.668 33.317 27.2356 33.317 26.7017V20.9045C33.317 20.3709 33.7496 19.9385 34.2831 19.9385H36.1674C37.7566 19.9385 39.0497 21.2389 39.0497 22.837C39.0497 23.7799 38.5994 24.6187 37.9038 25.1485L38.7696 26.0216ZM37.1172 22.837C37.1172 22.3041 36.691 21.8707 36.1674 21.8707H35.2493V23.803H36.1674C36.691 23.803 37.1172 23.3696 37.1172 22.837Z" fill="#FFF9EB"/>
<path d="M45.0384 26.7016C45.0384 27.2354 44.606 27.6679 44.0724 27.6679H41.1094C40.5759 27.6679 40.1434 27.2355 40.1434 26.7016V20.9044C40.1434 20.3707 40.5759 19.9384 41.1094 19.9384H44.0724C44.606 19.9384 45.0384 20.3707 45.0384 20.9044C45.0384 21.4382 44.606 21.8707 44.0724 21.8707H42.0756V22.837H43.2995C43.8331 22.837 44.2655 23.2694 44.2655 23.8032C44.2655 24.337 43.8331 24.7695 43.2995 24.7695H42.0756V25.7357H44.0724C44.606 25.7355 45.0384 26.1679 45.0384 26.7016Z" fill="#FFF9EB"/>
<path d="M51.0341 26.7016C51.0341 27.2354 50.6017 27.6679 50.068 27.6679H47.1051C46.5716 27.6679 46.139 27.2355 46.139 26.7016V20.9044C46.139 20.3707 46.5716 19.9384 47.1051 19.9384H50.068C50.6017 19.9384 51.0341 20.3707 51.0341 20.9044C51.0341 21.4382 50.6017 21.8707 50.068 21.8707H48.0713V22.837H49.2951C49.8288 22.837 50.2612 23.2694 50.2612 23.8032C50.2612 24.337 49.8288 24.7695 49.2951 24.7695H48.0713V25.7357H50.068C50.6017 25.7355 51.0341 26.1679 51.0341 26.7016Z" fill="#FFF9EB"/>
</g>
<defs>
<clipPath id="clip0_1_461">
<rect width="65" height="65" fill="white"/>
</clipPath>
</defs>
</svg>
